<svg width="310" height="309" viewBox="0 0 310 309" fill="none" xmlns="http://www.w3.org/2000/svg">
<path d="M187.778 7.71204L134.911 121.793L279.6 71.709L240.248 29.9718L187.778 7.71204Z" fill="#FEFF73"/>
<path d="M76.497 26.9277L119.782 144.978L186.677 7.25261L129.339 5.56617L76.497 26.9277Z" fill="#FF9470"/>
<path d="M5.72473 121.824L124.974 175.853L72.6205 27.9844L28.9928 68.2014L5.72473 121.824Z" fill="#FF70B5"/>
<path d="M28.3547 240.67L150.881 194.553L9.30245 127.013L6.89078 186.3L28.3547 240.67Z" fill="#D96DFF"/>
<path d="M128.75 305.437L185.393 187.778L30.3694 239.433L72.5324 282.479L128.75 305.437Z" fill="#7073F8"/>
<path d="M243.022 277.222L204.075 159.556L130.732 301.656L188.679 301.007L243.022 277.222Z" fill="#6BD8FF"/>
<path d="M305.675 182.227L194.933 126.563L243.552 278.905L284.067 237.471L305.675 182.227Z" fill="#74FDB7"/>
<path d="M279.871 72.3779L165.319 111.26L302.548 181.127L302.452 124.897L279.871 72.3779Z" fill="#92FE6C"/>
<mask id="mask0_2_134" style="mask-type:alpha" maskUnits="userSpaceOnUse" x="10" y="8" width="292" height="293">
<mask id="path-9-inside-1_2_134" fill="white">
<path fill-rule="evenodd" clip-rule="evenodd" d="M123.861 152.341L133.395 179.123L158.447 191.021L185.694 181.321L197.707 156.025L188.275 129.529L163.05 117.549L135.772 127.261L123.861 152.341ZM201.478 166.617L239.134 272.391L246.623 269.725L198.43 134.352L297.863 181.575L301.273 174.394L173.642 113.779L278.215 76.5505L275.549 69.061L140.595 117.105L190.341 12.3597L183.16 8.94919L120.09 141.749L80.1692 29.6121L72.6797 32.2783L123.24 174.3L13.511 122.187L10.1005 129.368L147.855 194.791L33.7643 235.408L36.4306 242.897L180.87 191.476L130.898 296.699L138.079 300.109L201.478 166.617Z"/>
</mask>
<path fill-rule="evenodd" clip-rule="evenodd" d="M123.861 152.341L133.395 179.123L158.447 191.021L185.694 181.321L197.707 156.025L188.275 129.529L163.05 117.549L135.772 127.261L123.861 152.341ZM201.478 166.617L239.134 272.391L246.623 269.725L198.43 134.352L297.863 181.575L301.273 174.394L173.642 113.779L278.215 76.5505L275.549 69.061L140.595 117.105L190.341 12.3597L183.16 8.94919L120.09 141.749L80.1692 29.6121L72.6797 32.2783L123.24 174.3L13.511 122.187L10.1005 129.368L147.855 194.791L33.7643 235.408L36.4306 242.897L180.87 191.476L130.898 296.699L138.079 300.109L201.478 166.617Z" fill="#050A08"/>
<path d="M133.395 179.123L132.453 179.459L132.592 179.849L132.966 180.027L133.395 179.123ZM123.861 152.341L122.957 151.912L122.78 152.286L122.919 152.676L123.861 152.341ZM158.447 191.021L158.018 191.924L158.392 192.102L158.782 191.963L158.447 191.021ZM185.694 181.321L186.029 182.263L186.419 182.124L186.597 181.75L185.694 181.321ZM197.707 156.025L198.61 156.454L198.788 156.08L198.649 155.69L197.707 156.025ZM188.275 129.529L189.217 129.194L189.078 128.803L188.704 128.626L188.275 129.529ZM163.05 117.549L163.479 116.646L163.105 116.468L162.715 116.607L163.05 117.549ZM135.772 127.261L135.436 126.319L135.046 126.457L134.869 126.832L135.772 127.261ZM201.478 166.617L202.42 166.281L201.61 164.007L200.575 166.188L201.478 166.617ZM239.134 272.391L238.192 272.727L238.527 273.669L239.469 273.333L239.134 272.391ZM246.623 269.725L246.959 270.667L247.901 270.332L247.565 269.39L246.623 269.725ZM198.43 134.352L198.859 133.449L196.679 132.413L197.488 134.688L198.43 134.352ZM297.863 181.575L297.434 182.478L298.337 182.907L298.766 182.004L297.863 181.575ZM301.273 174.394L302.177 174.823L302.606 173.92L301.702 173.491L301.273 174.394ZM173.642 113.779L173.307 112.837L171.032 113.646L173.213 114.682L173.642 113.779ZM278.215 76.5505L278.551 77.4926L279.493 77.1572L279.157 76.2151L278.215 76.5505ZM275.549 69.061L276.491 68.7256L276.156 67.7835L275.214 68.1189L275.549 69.061ZM140.595 117.105L139.692 116.676L138.656 118.857L140.93 118.047L140.595 117.105ZM190.341 12.3597L191.244 12.7887L191.673 11.8854L190.77 11.4564L190.341 12.3597ZM183.16 8.94919L183.589 8.04588L182.686 7.61688L182.257 8.52019L183.16 8.94919ZM120.09 141.749L119.148 142.084L119.958 144.359L120.993 142.178L120.09 141.749ZM80.1692 29.6121L81.1112 29.2767L80.7759 28.3346L79.8338 28.67L80.1692 29.6121ZM72.6797 32.2783L72.3443 31.3363L71.4022 31.6716L71.7376 32.6137L72.6797 32.2783ZM123.24 174.3L122.811 175.203L124.991 176.239L124.182 173.965L123.24 174.3ZM13.511 122.187L13.94 121.284L13.0367 120.855L12.6077 121.758L13.511 122.187ZM10.1005 129.368L9.19716 128.939L8.76816 129.843L9.67146 130.272L10.1005 129.368ZM147.855 194.791L148.19 195.733L150.465 194.924L148.284 193.888L147.855 194.791ZM33.7643 235.408L33.4289 234.466L32.4869 234.801L32.8222 235.743L33.7643 235.408ZM36.4306 242.897L35.4885 243.233L35.8239 244.175L36.766 243.839L36.4306 242.897ZM180.87 191.476L181.774 191.905L182.809 189.725L180.535 190.534L180.87 191.476ZM130.898 296.699L129.995 296.27L129.566 297.173L130.469 297.602L130.898 296.699ZM138.079 300.109L137.65 301.012L138.553 301.441L138.982 300.538L138.079 300.109ZM134.338 178.788L124.803 152.005L122.919 152.676L132.453 179.459L134.338 178.788ZM158.876 190.117L133.824 178.22L132.966 180.027L158.018 191.924L158.876 190.117ZM185.358 180.379L158.111 190.079L158.782 191.963L186.029 182.263L185.358 180.379ZM186.597 181.75L198.61 156.454L196.804 155.596L184.79 180.892L186.597 181.75ZM187.332 129.864L196.765 156.36L198.649 155.69L189.217 129.194L187.332 129.864ZM162.621 118.453L187.846 130.432L188.704 128.626L163.479 116.646L162.621 118.453ZM136.107 128.203L163.386 118.492L162.715 116.607L135.436 126.319L136.107 128.203ZM124.764 152.77L136.675 127.69L134.869 126.832L122.957 151.912L124.764 152.77ZM200.536 166.952L238.192 272.727L240.076 272.056L202.42 166.281L200.536 166.952ZM239.469 273.333L246.959 270.667L246.288 268.783L238.798 271.449L239.469 273.333ZM247.565 269.39L199.372 134.017L197.488 134.688L245.681 270.061L247.565 269.39ZM198.001 135.256L297.434 182.478L298.292 180.672L198.859 133.449L198.001 135.256ZM298.766 182.004L302.177 174.823L300.37 173.965L296.959 181.146L298.766 182.004ZM301.702 173.491L174.071 112.875L173.213 114.682L300.844 175.297L301.702 173.491ZM173.977 114.721L278.551 77.4926L277.88 75.6084L173.307 112.837L173.977 114.721ZM279.157 76.2151L276.491 68.7256L274.607 69.3964L277.273 76.8859L279.157 76.2151ZM275.214 68.1189L140.26 116.163L140.93 118.047L275.884 70.0031L275.214 68.1189ZM141.498 117.534L191.244 12.7887L189.438 11.9307L139.692 116.676L141.498 117.534ZM190.77 11.4564L183.589 8.04588L182.731 9.85249L189.912 13.263L190.77 11.4564ZM182.257 8.52019L119.187 141.32L120.993 142.178L184.063 9.37819L182.257 8.52019ZM121.032 141.414L81.1112 29.2767L79.2271 29.9474L119.148 142.084L121.032 141.414ZM79.8338 28.67L72.3443 31.3363L73.0151 33.2204L80.5045 30.5541L79.8338 28.67ZM71.7376 32.6137L122.298 174.635L124.182 173.965L73.6218 31.943L71.7376 32.6137ZM123.669 173.397L13.94 121.284L13.082 123.091L122.811 175.203L123.669 173.397ZM12.6077 121.758L9.19716 128.939L11.0038 129.797L14.4143 122.616L12.6077 121.758ZM9.67146 130.272L147.426 195.695L148.284 193.888L10.5295 128.465L9.67146 130.272ZM147.519 193.849L33.4289 234.466L34.0997 236.35L148.19 195.733L147.519 193.849ZM32.8222 235.743L35.4885 243.233L37.3727 242.562L34.7064 235.072L32.8222 235.743ZM36.766 243.839L181.206 192.418L180.535 190.534L36.0952 241.955L36.766 243.839ZM131.801 297.128L181.774 191.905L179.967 191.047L129.995 296.27L131.801 297.128ZM138.508 299.206L131.327 295.795L130.469 297.602L137.65 301.012L138.508 299.206ZM200.575 166.188L137.176 299.68L138.982 300.538L202.381 167.046L200.575 166.188Z" fill="#050A08" mask="url(#path-9-inside-1_2_134)"/>
</mask>
<g mask="url(#mask0_2_134)">
<circle cx="155.184" cy="154.388" r="149.229" fill="#050A08" stroke="#050A08" stroke-width="10"/>
</g>
<circle cx="155.183" cy="154.388" r="149.229" stroke="#050A08" stroke-width="10"/>
</svg>
