<svg width="512" height="512" viewBox="0 0 512 512" fill="none" xmlns="http://www.w3.org/2000/svg">
<path d="M306.988 28.8404L224.045 205.84L451.045 128.133L423.045 95.8404L387.545 64.3404L349.545 43.8404L306.988 28.8404Z" fill="#FEFF73"/>
<path d="M133.08 58.7142L200.045 247.84L304.663 28.5477L260.546 23.8398L215.317 25.6656L169.046 40.3398L133.08 58.7142Z" fill="#FF9470"/>
<path d="M27.5449 207.34L213.545 295.34L128.151 61.6114L93.0449 90.3404L63.0449 124.84L41.5449 164.34L27.5449 207.34Z" fill="#FF70B5"/>
<path d="M63.5448 386.84L253.545 318.84L28.0448 210.84L22.0449 250.34L24.5449 296.34L40.5449 346.84L63.5448 386.84Z" fill="#D96DFF"/>
<path d="M218.045 487.341L301.567 307.334L65.5449 389.841L91.0449 421.841L127.545 451.841L171.045 473.841L218.045 487.341Z" fill="#7073F8"/>
<path d="M392.545 445.34L326.545 265.84L218.545 486.34L261.545 489.84L308.249 483.704L355.045 465.84L392.545 445.34Z" fill="#6BD8FF"/>
<path d="M484.545 296.34L314.045 216.34L393.545 442.34L424.045 417.34L452.045 382.34L473.045 339.34L484.545 296.34Z" fill="#74FDB7"/>
<path d="M450.076 128.871L273.045 193.341L485.682 294.84L488.045 254.34L485.682 210.34L469.545 166.34L450.076 128.871Z" fill="#92FE6C"/>
<mask id="mask0_3_147" style="mask-type:alpha" maskUnits="userSpaceOnUse" x="26" y="28" width="461" height="461">
<mask id="path-2-inside-1_3_147" fill="white">
<path d="M305.559 296.148L309.659 307.665L66.7476 394.142L62.6476 382.625L305.559 296.148Z"/>
<path d="M261.994 313.205L256.75 324.248L26.498 214.896L31.7426 203.853L261.994 313.205Z"/>
<path d="M222.552 296.676L211.035 300.777L126.976 64.6562L138.492 60.5562L222.552 296.676Z"/>
<path d="M205.051 256.831L194.008 251.586L300.117 28.1639L311.16 33.4084L205.051 256.831Z"/>
<path d="M221.875 215.48L217.775 203.963L445.146 123.018L449.246 134.535L221.875 215.48Z"/>
<path d="M263.742 197.694L268.987 186.651L486.053 289.741L480.808 300.784L263.742 197.694Z"/>
<path d="M305.067 215.146L316.584 211.046L397.968 439.652L386.451 443.752L305.067 215.146Z"/>
<path d="M321.214 257.012L332.257 262.256L224.805 488.507L213.762 483.262L321.214 257.012Z"/>
</mask>
<path d="M305.559 296.148L309.659 307.665L66.7476 394.142L62.6476 382.625L305.559 296.148Z" fill="#050A08"/>
<path d="M261.994 313.205L256.75 324.248L26.498 214.896L31.7426 203.853L261.994 313.205Z" fill="#050A08"/>
<path d="M222.552 296.676L211.035 300.777L126.976 64.6562L138.492 60.5562L222.552 296.676Z" fill="#050A08"/>
<path d="M205.051 256.831L194.008 251.586L300.117 28.1639L311.16 33.4084L205.051 256.831Z" fill="#050A08"/>
<path d="M221.875 215.48L217.775 203.963L445.146 123.018L449.246 134.535L221.875 215.48Z" fill="#050A08"/>
<path d="M263.742 197.694L268.987 186.651L486.053 289.741L480.808 300.784L263.742 197.694Z" fill="#050A08"/>
<path d="M305.067 215.146L316.584 211.046L397.968 439.652L386.451 443.752L305.067 215.146Z" fill="#050A08"/>
<path d="M321.214 257.012L332.257 262.256L224.805 488.507L213.762 483.262L321.214 257.012Z" fill="#050A08"/>
<path d="M305.559 296.148L306.501 295.812L306.166 294.87L305.224 295.206L305.559 296.148ZM309.659 307.665L309.995 308.607L310.937 308.271L310.601 307.329L309.659 307.665ZM66.7476 394.142L65.8056 394.477L66.1409 395.419L67.083 395.084L66.7476 394.142ZM62.6476 382.625L62.3122 381.683L61.3701 382.018L61.7055 382.96L62.6476 382.625ZM261.994 313.205L262.897 313.634L263.326 312.731L262.423 312.302L261.994 313.205ZM256.75 324.248L256.321 325.151L257.224 325.58L257.653 324.677L256.75 324.248ZM26.498 214.896L25.5947 214.467L25.1657 215.37L26.069 215.799L26.498 214.896ZM31.7426 203.853L32.1716 202.95L31.2683 202.521L30.8393 203.424L31.7426 203.853ZM222.552 296.676L222.887 297.619L223.829 297.283L223.494 296.341L222.552 296.676ZM211.035 300.777L210.093 301.112L210.428 302.054L211.37 301.719L211.035 300.777ZM126.976 64.6562L126.64 63.7142L125.698 64.0495L126.033 64.9916L126.976 64.6562ZM138.492 60.5562L139.435 60.2208L139.099 59.2787L138.157 59.6141L138.492 60.5562ZM205.051 256.831L204.622 257.734L205.526 258.163L205.955 257.26L205.051 256.831ZM194.008 251.586L193.105 251.157L192.676 252.06L193.579 252.489L194.008 251.586ZM300.117 28.1639L300.546 27.2606L299.643 26.8316L299.214 27.7349L300.117 28.1639ZM311.16 33.4084L312.063 33.8374L312.492 32.9341L311.589 32.5051L311.16 33.4084ZM221.875 215.48L220.933 215.815L221.268 216.757L222.21 216.422L221.875 215.48ZM217.775 203.963L217.44 203.021L216.498 203.356L216.833 204.298L217.775 203.963ZM445.146 123.018L446.088 122.683L445.753 121.741L444.811 122.076L445.146 123.018ZM449.246 134.535L449.581 135.477L450.524 135.142L450.188 134.2L449.246 134.535ZM263.742 197.694L262.839 197.265L262.41 198.168L263.313 198.597L263.742 197.694ZM268.987 186.651L269.416 185.748L268.513 185.319L268.084 186.222L268.987 186.651ZM486.053 289.741L486.956 290.17L487.385 289.266L486.482 288.837L486.053 289.741ZM480.808 300.784L480.379 301.687L481.283 302.116L481.712 301.213L480.808 300.784ZM305.067 215.146L304.732 214.204L303.789 214.539L304.125 215.481L305.067 215.146ZM316.584 211.046L317.526 210.71L317.191 209.768L316.249 210.103L316.584 211.046ZM397.968 439.652L398.304 440.594L399.246 440.258L398.91 439.316L397.968 439.652ZM386.451 443.752L385.509 444.087L385.845 445.029L386.787 444.694L386.451 443.752ZM321.214 257.012L321.643 256.108L320.74 255.679L320.311 256.583L321.214 257.012ZM332.257 262.256L333.16 262.685L333.589 261.782L332.686 261.353L332.257 262.256ZM224.805 488.507L224.376 489.41L225.279 489.839L225.708 488.936L224.805 488.507ZM213.762 483.262L212.859 482.833L212.43 483.737L213.333 484.166L213.762 483.262ZM304.617 296.483L308.717 308L310.601 307.329L306.501 295.812L304.617 296.483ZM309.324 306.723L66.4123 393.2L67.083 395.084L309.995 308.607L309.324 306.723ZM67.6897 393.806L63.5897 382.289L61.7055 382.96L65.8056 394.477L67.6897 393.806ZM62.983 383.567L305.895 297.09L305.224 295.206L62.3122 381.683L62.983 383.567ZM261.091 312.776L255.846 323.819L257.653 324.677L262.897 313.634L261.091 312.776ZM257.179 323.345L26.927 213.993L26.069 215.799L256.321 325.151L257.179 323.345ZM27.4014 215.325L32.6459 204.282L30.8393 203.424L25.5947 214.467L27.4014 215.325ZM31.3136 204.756L261.565 314.108L262.423 312.302L32.1716 202.95L31.3136 204.756ZM222.216 295.734L210.699 299.834L211.37 301.719L222.887 297.619L222.216 295.734ZM211.977 300.441L127.918 64.3209L126.033 64.9916L210.093 301.112L211.977 300.441ZM127.311 65.5983L138.828 61.4983L138.157 59.6141L126.64 63.7142L127.311 65.5983ZM137.55 60.8916L221.61 297.012L223.494 296.341L139.435 60.2208L137.55 60.8916ZM205.48 255.927L194.437 250.683L193.579 252.489L204.622 257.734L205.48 255.927ZM194.912 252.015L301.02 28.5929L299.214 27.7349L193.105 251.157L194.912 252.015ZM299.688 29.0672L310.731 34.3117L311.589 32.5051L300.546 27.2606L299.688 29.0672ZM310.257 32.9794L204.148 256.402L205.955 257.26L312.063 33.8374L310.257 32.9794ZM222.817 215.144L218.717 203.628L216.833 204.298L220.933 215.815L222.817 215.144ZM218.11 204.905L445.481 123.96L444.811 122.076L217.44 203.021L218.11 204.905ZM444.204 123.354L448.304 134.871L450.188 134.2L446.088 122.683L444.204 123.354ZM448.911 133.593L221.54 214.538L222.21 216.422L449.581 135.477L448.911 133.593ZM264.646 198.123L269.89 187.08L268.084 186.222L262.839 197.265L264.646 198.123ZM268.558 187.554L485.624 290.644L486.482 288.837L269.416 185.748L268.558 187.554ZM485.15 289.312L479.905 300.355L481.712 301.213L486.956 290.17L485.15 289.312ZM481.237 299.88L264.171 196.79L263.313 198.597L480.379 301.687L481.237 299.88ZM305.402 216.088L316.919 211.988L316.249 210.103L304.732 214.204L305.402 216.088ZM315.642 211.381L397.026 439.987L398.91 439.316L317.526 210.71L315.642 211.381ZM397.633 438.71L386.116 442.81L386.787 444.694L398.304 440.594L397.633 438.71ZM387.393 443.416L306.009 214.81L304.125 215.481L385.509 444.087L387.393 443.416ZM320.785 257.915L331.828 263.16L332.686 261.353L321.643 256.108L320.785 257.915ZM331.353 261.827L223.902 488.078L225.708 488.936L333.16 262.685L331.353 261.827ZM225.234 487.604L214.191 482.359L213.333 484.166L224.376 489.41L225.234 487.604ZM214.665 483.691L322.117 257.441L320.311 256.583L212.859 482.833L214.665 483.691Z" fill="#050A08" mask="url(#path-2-inside-1_3_147)"/>
</mask>
<g mask="url(#mask0_3_147)">
<circle cx="255.113" cy="255.989" r="232.165" fill="#050A08" stroke="#050A08" stroke-width="10"/>
</g>
<circle cx="255.5" cy="256.5" r="231.5" stroke="#050A08" stroke-width="12"/>
<circle cx="253" cy="238" r="21" fill="#F1F4F3"/>
</svg>
